<svg width="24" height="25" viewBox="0 0 24 25" fill="none" xmlns="http://www.w3.org/2000/svg">
<path d="M18.7173 20.8894L18.3269 21.2018C18.5722 21.5083 18.4991 21.9655 18.1784 22.179L18.4555 22.5952L18.1784 22.179C16.3702 23.383 14.2414 24.035 12.0708 24.035C5.89394 24.035 0.877197 18.9193 0.877197 12.5749C0.877197 6.22946 5.89491 1.11475 12.0708 1.11475C18.3588 1.11475 23.2644 5.17104 23.2644 11.4175C23.2644 13.1635 22.7977 14.8129 21.7667 16.0177C20.7472 17.2092 19.1242 18.0265 16.6775 18.0265C15.9454 18.0265 15.3145 18.0212 14.8088 17.8479C14.3561 17.6928 14.0041 17.4034 13.8258 16.7502L13.5586 15.7715L12.9452 16.5795C12.1988 17.5627 10.9076 18.2305 9.80751 18.2305C8.53497 18.2305 7.54683 17.7889 6.87134 17.0269C6.18963 16.258 5.78096 15.1108 5.78096 13.6248C5.78096 9.55781 8.57791 6.82041 11.7799 6.82041C12.6769 6.82041 13.678 7.01121 14.2177 7.68353L14.9766 8.62891L15.1048 7.42343L15.105 7.42126C15.1051 7.421 15.1051 7.42074 15.1051 7.42048C15.1098 7.38064 15.1282 7.34616 15.1541 7.32256C15.1798 7.29908 15.211 7.28772 15.2414 7.28772H17.3624C17.7465 7.28772 18.0615 7.65229 17.9821 8.07206L17.9821 8.07208L16.8777 13.9097C16.8776 13.9103 16.8775 13.9108 16.8774 13.9113C16.8359 14.1237 16.7996 14.34 16.7856 14.5437C16.7717 14.7449 16.7768 14.966 16.8398 15.1758C16.9067 15.3983 17.0391 15.6071 17.2636 15.7534C17.4774 15.8928 17.7301 15.9465 17.9905 15.9535L18.0244 15.9544L18.058 15.9507C19.1242 15.8345 19.9307 15.1737 20.4555 14.3295C20.978 13.4892 21.2467 12.4339 21.2467 11.4175C21.2467 8.80235 20.1937 6.73154 18.4989 5.32323C16.8141 3.92323 14.5253 3.20123 12.0708 3.20123C7.00017 3.20123 2.8949 7.41648 2.8949 12.5749C2.8949 17.7333 7.00017 21.9485 12.0708 21.9485C13.8346 21.9485 15.5614 21.4254 17.0324 20.4605C17.2899 20.2915 17.6408 20.3445 17.847 20.6022L18.3269 21.2018L18.7173 20.8894ZM8.84778 13.3301C8.84778 14.0221 9.03399 14.6412 9.42659 15.0951C9.82648 15.5574 10.3963 15.7963 11.0485 15.7963C11.7996 15.7963 12.6115 15.3717 13.2215 14.6912C13.8434 13.9973 14.2909 13.0026 14.2909 11.7888C14.2909 11.0936 14.1138 10.4736 13.726 10.0194C13.3294 9.55483 12.7623 9.32261 12.1123 9.32261C10.4599 9.32261 8.84778 10.9517 8.84778 13.3301Z" fill="#4A678F" stroke="#CBD2D7"/>
</svg>
