<svg width="85" height="64" viewBox="0 0 85 64" fill="none" xmlns="http://www.w3.org/2000/svg">
<path d="M62.32 14V15H63.32H76.3325C80.0858 15 83.14 17.8339 83.14 20.75V31H1.85999V20.75C1.85999 17.8339 4.9142 15 8.66749 15H21.68H22.68V14V7.25C22.68 4.33395 25.7342 1.5 29.4875 1.5H55.5125C59.2658 1.5 62.32 4.33395 62.32 7.25V14ZM52.91 15H53.91V14V9.5V8.5H52.91H32.09H31.09V9.5V14V15H32.09H52.91ZM50.3075 46.5C52.1561 46.5 53.91 45.1771 53.91 43.25V37.5H83.14V56.75C83.14 59.6661 80.0858 62.5 76.3325 62.5H8.66749C4.9142 62.5 1.85999 59.6661 1.85999 56.75V37.5H31.09V43.25C31.09 45.1771 32.8439 46.5 34.6925 46.5H50.3075Z" fill="#FAFAFA" stroke="#FFBF00" stroke-width="2"/>
</svg>
