<svg width="85" height="72" viewBox="0 0 85 72" fill="none" xmlns="http://www.w3.org/2000/svg">
<g clip-path="url(#clip0)">
<path d="M62.32 18V19H63.32H76.3325C80.0858 19 83.14 21.8339 83.14 24.75V35H1.85999V24.75C1.85999 21.8339 4.9142 19 8.66749 19H21.68H22.68V18V11.25C22.68 8.33395 25.7342 5.5 29.4875 5.5H55.5125C59.2658 5.5 62.32 8.33395 62.32 11.25V18ZM52.91 19H53.91V18V13.5V12.5H52.91H32.09H31.09V13.5V18V19H32.09H52.91ZM50.3075 50.5C52.1561 50.5 53.91 49.1771 53.91 47.25V41.5H83.14V60.75C83.14 63.6661 80.0858 66.5 76.3325 66.5H8.66749C4.9142 66.5 1.85999 63.6661 1.85999 60.75V41.5H31.09V47.25C31.09 49.1771 32.8439 50.5 34.6925 50.5H50.3075Z" fill="#FAFAFA" stroke="#A3977A" stroke-width="2"/>
</g>
<defs>
<clipPath id="clip0">
<rect width="83.28" height="72" fill="white" transform="translate(0.859985)"/>
</clipPath>
</defs>
</svg>
