<svg width="60" height="60" viewBox="0 0 60 60" fill="none" xmlns="http://www.w3.org/2000/svg">
<path d="M35.711 39.3333L35.1604 39.2309L34.7854 39.6469L31.9714 42.7681C31.8023 42.9558 31.5939 43.1069 31.3594 43.2107C31.1249 43.3145 30.8702 43.3684 30.6121 43.3684H26.25H25.25V44.3684V48.9901C25.25 49.9561 24.4519 50.7632 23.4375 50.7632H18.75H17.75V51.7632V56.3849C17.75 57.3508 16.9519 58.1579 15.9375 58.1579H2.8125C1.79809 58.1579 1 57.3508 1 56.3849V47.3657C1 46.9001 1.18752 46.4505 1.52588 46.1168L20.487 27.4219L20.9311 26.984L20.7332 26.3926C20.0962 24.4879 19.75 22.4524 19.75 20.3355C19.75 9.6701 28.5229 1.00011 39.3749 1C50.2605 0.99989 59 9.63694 59 20.3356C59 31.0011 50.227 39.6711 39.375 39.6711C38.1225 39.6711 36.8982 39.5542 35.711 39.3333ZM38.375 14.7895C38.375 18.4181 41.3544 21.3355 45 21.3355C48.6456 21.3355 51.625 18.4181 51.625 14.7895C51.625 11.1609 48.6455 8.24342 45 8.24342C41.3545 8.24342 38.375 11.1609 38.375 14.7895Z" fill="white" stroke="#FFBF00" stroke-width="2"/>
</svg>
