<svg width="25" height="26" viewBox="0 0 25 26" fill="none" xmlns="http://www.w3.org/2000/svg">
<path d="M11.9662 16.2133L11.9662 16.2133C11.31 15.3225 10.1294 13.6551 9.11501 11.8795C8.60775 10.9915 8.14733 10.0856 7.81494 9.24243C7.47934 8.39114 7.28982 7.6421 7.28982 7.0565C7.28982 3.90839 9.49382 1.47998 12.0708 1.47998C14.6478 1.47998 16.8518 3.90839 16.8518 7.0565C16.8518 7.6421 16.6623 8.39114 16.3267 9.24243C15.9943 10.0856 15.5338 10.9915 15.0266 11.8795C14.0122 13.6551 12.8316 15.3225 12.1754 16.2133L12.1751 16.2136C12.1291 16.2762 12.0879 16.2826 12.071 16.2826C12.054 16.2826 12.0125 16.2761 11.9662 16.2133ZM1.05232 11.8487L0.844236 11.3965L1.05232 11.8487L5.51482 9.79486C5.70587 10.3387 5.93893 10.8948 6.206 11.458V22.2828L0.703027 25.1649C0.683903 25.1724 0.670257 25.1726 0.659733 25.1711C0.645976 25.1691 0.625622 25.1624 0.601932 25.1439C0.55412 25.1066 0.5 25.0252 0.5 24.8993V12.8274C0.5 12.8273 0.5 12.8273 0.5 12.8273C0.50006 12.6042 0.558459 12.391 0.66164 12.2157C0.76463 12.0407 0.903768 11.917 1.05232 11.8487ZM23.0894 22.5194L23.0893 22.5194L17.9356 24.8913V12.0852L23.4386 9.20316C23.4577 9.19568 23.4713 9.19554 23.4819 9.19702C23.4956 9.19895 23.516 9.20572 23.5397 9.22418C23.5875 9.26144 23.6416 9.34293 23.6416 9.46879V21.5408C23.6416 21.7639 23.5832 21.9771 23.48 22.1524C23.377 22.3274 23.2379 22.451 23.0894 22.5194ZM8.5472 15.5289C9.07636 16.3294 9.61783 17.0979 10.1379 17.804L10.138 17.8041C10.6046 18.438 11.3056 18.8256 12.0708 18.8256C12.836 18.8256 13.537 18.438 14.0036 17.8047C14.524 17.0985 15.0654 16.3298 15.5944 15.5293V24.9441L8.5472 22.2412V15.5289Z" fill="#4A678F" stroke="#CBD2D7"/>
</svg>
