<svg width="19" height="25" viewBox="0 0 19 25" fill="none" xmlns="http://www.w3.org/2000/svg">
<path d="M2.71593 0.5H15.3903C16.6915 0.5 17.6062 1.38495 17.6062 2.31487V22.377C17.6062 23.307 16.6915 24.1919 15.3903 24.1919H2.71593C1.41475 24.1919 0.5 23.307 0.5 22.377V2.31487C0.5 1.38495 1.41475 0.5 2.71593 0.5ZM6.74248 21.6054C6.74248 22.8071 7.85336 23.6487 9.0531 23.6487C10.2528 23.6487 11.3637 22.8071 11.3637 21.6054C11.3637 20.4037 10.2528 19.5622 9.0531 19.5622C7.85336 19.5622 6.74248 20.4037 6.74248 21.6054ZM14.7113 19.0189C15.283 19.0189 15.8903 18.6066 15.8903 17.9402V2.89358C15.8903 2.2272 15.283 1.81487 14.7113 1.81487H3.39491C2.82324 1.81487 2.21593 2.2272 2.21593 2.89358V17.9402C2.21593 18.6066 2.82323 19.0189 3.39491 19.0189H14.7113Z" fill="#4A678F" stroke="#CBD2D7"/>
</svg>
