<svg width="72" height="66" viewBox="0 0 72 66" fill="none" xmlns="http://www.w3.org/2000/svg">
<path d="M20.0006 33.8667H21.0006V32.8667V16.4333C21.0006 12.1491 18.0096 8.39048 14.0004 8.39048C9.99127 8.39048 7.00024 12.1491 7.00024 16.4333V32.8667V33.8667H8.00024H20.0006ZM65.4283 26.3696L65.4289 26.3703C72.1653 34.2633 72.7732 46.5898 67.3595 55.4259L41.0499 24.5444C41.0177 24.5066 40.98 24.4218 40.9858 24.3089C40.9917 24.1955 41.0346 24.1516 41.0368 24.1497C48.4252 17.8641 58.7452 18.5252 65.4283 26.3696ZM1 16.4333C1 7.74701 6.95924 1 14.0004 1C21.0416 1 27.0008 7.74701 27.0008 16.4333V49.3C27.0008 57.9863 21.0416 64.7333 14.0004 64.7333C6.95924 64.7333 1 57.9863 1 49.3V16.4333ZM38.6748 58.2621C31.9493 50.3678 31.3308 38.026 36.7436 29.2058L63.0532 60.0873C63.0854 60.1251 63.1231 60.2099 63.1173 60.3227C63.1115 60.4362 63.0685 60.4801 63.0663 60.4819C55.678 66.7675 45.3579 66.1064 38.6748 58.2621Z" fill="white" stroke="#FFBF00" stroke-width="2"/>
</svg>
