<svg width="24" height="25" viewBox="0 0 24 25" fill="none" xmlns="http://www.w3.org/2000/svg">
<path d="M5.26604 8.30666L4.80002 7.10803L4.334 8.30666L1.634 15.2513L1.36917 15.9324H2.10002H7.50002H8.23088L7.96604 15.2513L5.26604 8.30666ZM16.034 15.2513L15.7692 15.9324H16.5H21.9H22.6309L22.366 15.2513L19.666 8.30666L19.2 7.10803L18.734 8.30666L16.034 15.2513ZM12.7 21.6054V22.1054H13.2H19.795C19.8006 22.1082 19.8127 22.1165 19.8296 22.1383C19.8645 22.1831 19.9 22.2658 19.9 22.377V23.9203C19.9 24.0315 19.8645 24.1142 19.8296 24.159C19.8127 24.1808 19.8006 24.1891 19.795 24.1919H4.20502C4.19941 24.1891 4.18734 24.1808 4.17042 24.159C4.13555 24.1142 4.10002 24.0315 4.10002 23.9203V22.377C4.10002 22.2658 4.13555 22.1831 4.17042 22.1383C4.18734 22.1165 4.19942 22.1082 4.20502 22.1054H10.8H11.3V21.6054V7.39069V7.0983L11.0452 6.95493C10.3223 6.54821 9.73162 5.67505 9.55428 4.55176L9.48765 4.12973H9.0604H4.20502C4.19941 4.12692 4.18734 4.11862 4.17042 4.09687C4.13555 4.05202 4.10002 3.96932 4.10002 3.85811V2.31487C4.10002 2.20366 4.13555 2.12095 4.17042 2.07611C4.18734 2.05435 4.19941 2.04606 4.20502 2.04324H9.61352H9.89965L10.0446 1.79656C10.5295 0.971383 11.2467 0.5 12 0.5C12.7533 0.5 13.4706 0.971383 13.9554 1.79656L14.1004 2.04324H14.3865H19.795C19.8006 2.04606 19.8127 2.05435 19.8296 2.07611C19.8645 2.12095 19.9 2.20366 19.9 2.31487V3.85811C19.9 3.96932 19.8645 4.05202 19.8296 4.09687C19.8127 4.11862 19.8006 4.12692 19.795 4.12973H14.9396H14.5124L14.4458 4.55179C14.2684 5.67539 13.6774 6.54819 12.9548 6.95497L12.7 7.09836V7.39069V21.6054ZM19.7915 22.1042C19.7915 22.104 19.7924 22.1042 19.7941 22.105C19.7924 22.1047 19.7915 22.1043 19.7915 22.1042ZM19.7915 24.1932C19.7915 24.193 19.7923 24.1927 19.7941 24.1924C19.7924 24.1931 19.7915 24.1933 19.7915 24.1932ZM4.20855 24.1932C4.20853 24.1933 4.20765 24.1931 4.20597 24.1924C4.20773 24.1927 4.20856 24.193 4.20855 24.1932ZM4.20597 22.105C4.20766 22.1042 4.20854 22.104 4.20855 22.1042C4.20855 22.1043 4.20772 22.1047 4.20597 22.105ZM4.20597 4.13018C4.20773 4.1305 4.20856 4.13087 4.20855 4.13099C4.20853 4.1311 4.20765 4.13095 4.20597 4.13018ZM4.20597 2.04279C4.20764 2.04203 4.20852 2.04188 4.20855 2.04199C4.20857 2.0421 4.20773 2.04248 4.20597 2.04279ZM19.7941 2.04279C19.7923 2.04248 19.7915 2.0421 19.7915 2.04199C19.7915 2.04188 19.7924 2.04203 19.7941 2.04279ZM19.7941 4.13018C19.7924 4.13094 19.7915 4.1311 19.7915 4.13099C19.7915 4.13088 19.7923 4.1305 19.7941 4.13018ZM4.79993 6.6728C5.19577 6.67306 5.67306 6.93534 5.94388 7.63168L5.9439 7.63172C6.69174 9.55524 7.26348 11.0135 7.7009 12.1291C8.21268 13.4345 8.54058 14.2708 8.75152 14.8346C8.94843 15.3609 9.03163 15.6195 9.06912 15.7877C9.10013 15.9268 9.1001 15.9991 9.10003 16.1775C9.10003 16.1861 9.10002 16.1949 9.10002 16.2041C9.10002 17.9621 7.28224 19.5622 4.80002 19.5622C2.31791 19.5622 0.500772 17.9622 0.500772 16.2041C0.500772 16.1868 0.500749 16.1706 0.500728 16.1553C0.500502 15.9952 0.500413 15.9324 0.528035 15.8064C0.563255 15.6457 0.643526 15.3936 0.838667 14.87C1.05921 14.2782 1.41145 13.3782 1.97601 11.9358C2.40291 10.845 2.95122 9.44409 3.65579 7.63168C3.92714 6.93374 4.40446 6.67253 4.79993 6.6728ZM19.1999 6.6728C19.5958 6.67306 20.0731 6.93534 20.3439 7.63168L17.5898 7.45049L18.0558 7.63168C18.0558 7.63167 18.0558 7.63166 18.0558 7.63166C18.3272 6.93373 18.8045 6.67253 19.1999 6.6728Z" fill="#4A678F" stroke="#CBD2D7"/>
</svg>
