<svg width="60" height="60" viewBox="0 0 60 60" fill="none" xmlns="http://www.w3.org/2000/svg">
<path d="M28.4781 48.75V47.75H27.4781H4.5C2.76461 47.75 1 45.8979 1 43.125V5.625C1 2.85205 2.76461 1 4.5 1H55.5C57.2354 1 59 2.85205 59 5.625V43.125C59 45.8979 57.2354 47.75 55.5 47.75H33.4781H32.4781V48.75V52.5V53.5H33.4781H48.4781C49.3885 53.5 50.4781 54.5083 50.4781 56.25C50.4781 57.9917 49.3885 59 48.4781 59H12.4781C11.5677 59 10.4781 57.9917 10.4781 56.25C10.4781 54.5083 11.5677 53.5 12.4781 53.5H27.4781H28.4781V52.5V48.75ZM54 42.25H55V41.25V7.5V6.5H54H6H5V7.5V41.25V42.25H6H54Z" fill="white" stroke="#FFBF00" stroke-width="2"/>
</svg>
