<svg width="72" height="57" viewBox="0 0 72 57" fill="none" xmlns="http://www.w3.org/2000/svg">
<path d="M56.1562 29.0701L54.8 28.5532V30.0046V50.7651H55.8L56.2198 51.6727C60.3622 49.7567 66.8821 44.1754 67.5416 34.1653L67.5901 33.4283L66.8999 33.1652L56.1562 29.0701ZM54.9051 25.758C55.6773 25.4682 56.3664 25.6329 56.6929 25.7572L69.651 30.6969C69.6514 30.697 69.6517 30.6971 69.652 30.6972C70.511 31.0267 71 31.7585 71 32.4967C71 45.6596 62.1691 52.9601 56.697 55.0439C56.3497 55.1724 55.6731 55.3328 54.9053 55.0447C48.0495 52.4278 40.6 44.3102 40.6 32.4967C40.6 31.7585 41.089 31.0267 41.948 30.6972C41.9483 30.6971 41.9486 30.697 41.949 30.6969L54.9033 25.7586C54.9039 25.7584 54.9045 25.7582 54.9051 25.758ZM38.6 14.0526C38.6 21.2394 32.6246 27.1053 25.2 27.1053C17.7754 27.1053 11.8 21.2394 11.8 14.0526C11.8 6.86591 17.7754 1 25.2 1C32.6246 1 38.6 6.86591 38.6 14.0526ZM35.0002 32.6184C35.0361 42.4258 39.4034 50.2278 44.9324 55.2105H5.4C2.94788 55.2105 1 53.275 1 50.9408V46.3737C1 38.8027 7.30162 32.6184 15.12 32.6184H16.7883C19.3669 33.7388 22.2045 34.375 25.2 34.375C28.1942 34.375 31.0425 33.7394 33.6125 32.6184H35.0002Z" fill="white" stroke="#FFBF00" stroke-width="2"/>
</svg>
