<svg width="60" height="60" viewBox="0 0 60 60" fill="none" xmlns="http://www.w3.org/2000/svg">
<path d="M30 1C31.7098 1 33.3491 1.247 34.8946 1.68649L24.7029 8.375H15.8033C18.5092 4.02176 23.8098 1 30 1ZM35.4881 8.375L40.9394 4.79773C42.2405 5.83973 43.3439 7.04106 44.1884 8.375H35.4881ZM46.1429 15C46.1429 22.6104 39.0447 29 30 29C20.9553 29 13.8571 22.6104 13.8571 15C13.8571 14.7051 13.8875 14.4276 13.9313 14.125H46.0681C46.1121 14.4276 46.1429 14.7043 46.1429 15ZM26.2624 59H11.7143V35.8191C12.506 35.5451 13.3209 35.3237 14.1521 35.157L26.2624 59ZM5.42857 39.6714V58.9231C2.82255 58.515 1 56.5405 1 54.375V49.5C1 45.7304 2.67295 42.2958 5.42857 39.6714ZM33.1971 59L28.4983 49.75H34.2857C37.4081 49.75 39.7143 51.9466 39.7143 54.375C39.7143 56.8034 37.4081 59 34.2857 59H33.1971ZM30 36.625C33.5444 36.625 36.9073 35.9445 39.953 34.75H42C51.5188 34.75 59 41.4747 59 49.5V54.375C59 56.8081 56.6992 59 53.5714 59H44.738C45.5325 57.6198 46 56.0549 46 54.375C46 48.5323 40.616 44 34.2857 44H25.5793L21.0728 35.1285C23.8415 36.0872 26.8491 36.625 30 36.625Z" fill="white" stroke="#FFBF00" stroke-width="2"/>
</svg>
