<svg width="30" height="21" viewBox="0 0 30 21" fill="none" xmlns="http://www.w3.org/2000/svg">
<path d="M1.62855 4.07349H15H28.3714C28.9395 4.07349 29.4 3.70803 29.4 3.25717V1.21635C29.4 0.765484 28.9395 0.400024 28.3714 0.400024H1.62855C1.06045 0.400024 0.599976 0.765484 0.599976 1.21635V3.25717C0.599976 3.70803 1.06045 4.07349 1.62855 4.07349ZM1.62855 12.2368H28.3714C28.9395 12.2368 29.4 11.8713 29.4 11.4204V9.37961C29.4 8.92875 28.9395 8.56329 28.3714 8.56329H1.62855C1.06045 8.56329 0.599976 8.92875 0.599976 9.37961V11.4204C0.599976 11.8713 1.06045 12.2368 1.62855 12.2368ZM1.62855 20.4H28.3714C28.9395 20.4 29.4 20.0346 29.4 19.5837V17.5429C29.4 17.092 28.9395 16.7266 28.3714 16.7266H1.62855C1.06045 16.7266 0.599976 17.092 0.599976 17.5429V19.5837C0.599976 20.0346 1.06045 20.4 1.62855 20.4Z" fill="#A3977A"/>
<path d="M28.9 3.25717C28.9 3.30188 28.8785 3.37089 28.7879 3.44276C28.6965 3.51532 28.5509 3.57349 28.3714 3.57349H15H1.62855C1.44906 3.57349 1.30348 3.51532 1.21206 3.44276C1.1215 3.37089 1.09998 3.30188 1.09998 3.25717V1.21635C1.09998 1.17164 1.1215 1.10263 1.21206 1.03076C1.30348 0.958197 1.44906 0.900024 1.62855 0.900024H28.3714C28.5509 0.900024 28.6965 0.958197 28.7879 1.03076C28.8785 1.10263 28.9 1.17164 28.9 1.21635V3.25717ZM28.9 11.4204C28.9 11.4651 28.8785 11.5342 28.7879 11.606C28.6965 11.6786 28.5509 11.7368 28.3714 11.7368H1.62855C1.44906 11.7368 1.30348 11.6786 1.21206 11.606C1.1215 11.5342 1.09998 11.4651 1.09998 11.4204V9.37961C1.09998 9.3349 1.1215 9.26589 1.21206 9.19402C1.30348 9.12146 1.44906 9.06329 1.62855 9.06329H28.3714C28.5509 9.06329 28.6965 9.12146 28.7879 9.19402C28.8785 9.26589 28.9 9.3349 28.9 9.37961V11.4204ZM28.9 19.5837C28.9 19.6284 28.8785 19.6974 28.7879 19.7693C28.6965 19.8418 28.5509 19.9 28.3714 19.9H1.62855C1.44906 19.9 1.30348 19.8418 1.21206 19.7693C1.1215 19.6974 1.09998 19.6284 1.09998 19.5837V17.5429C1.09998 17.4982 1.1215 17.4292 1.21206 17.3573C1.30348 17.2847 1.44906 17.2266 1.62855 17.2266H28.3714C28.5509 17.2266 28.6965 17.2847 28.7879 17.3573C28.8785 17.4292 28.9 17.4982 28.9 17.5429V19.5837Z" stroke="#A3977A" stroke-opacity="0.89"/>
</svg>
