<svg width="20" height="22" viewBox="0 0 20 22" fill="none" xmlns="http://www.w3.org/2000/svg">
<path d="M1.55812 12.5702L0.567052 11.5296C0.147409 11.089 0.147409 10.3765 0.567052 9.94053L9.24116 0.828027C9.6608 0.387402 10.3394 0.387402 10.7546 0.828027L19.4287 9.93584C19.8483 10.3765 19.8483 11.089 19.4287 11.5249L18.4376 12.5655C18.0135 13.0108 17.3215 13.0015 16.9063 12.5468L11.7858 6.90303V20.3749C11.7858 20.9983 11.3081 21.4999 10.7144 21.4999H9.2858C8.69205 21.4999 8.21437 20.9983 8.21437 20.3749V6.90303L3.08937 12.5515C2.67419 13.0108 1.98223 13.0202 1.55812 12.5702Z" fill="white"/>
</svg>
