<svg width="67" height="72" viewBox="0 0 67 72" fill="none" xmlns="http://www.w3.org/2000/svg">
<path d="M45.4714 47.0442L45.4716 47.044C46.798 45.9384 47.6353 45.3467 48.6695 44.9539C49.3836 44.6827 50.201 44.509 51.3056 44.2742C51.6852 44.1935 52.0988 44.1056 52.5537 44.004C54.6624 43.5328 56.1979 42.1863 56.7078 40.5988L56.7079 40.5985C56.7904 40.342 56.867 40.1003 56.9395 39.872C57.4027 38.4117 57.6931 37.4961 58.233 36.7166C58.5568 36.2493 58.9514 35.8495 59.457 35.4001C59.8258 35.0723 60.2841 34.692 60.8472 34.2248C61.0434 34.062 61.2525 33.8885 61.4749 33.7031L61.475 33.7029C62.9438 32.4786 63.4526 30.7688 62.9522 29.211C62.8713 28.9591 62.7945 28.7224 62.7221 28.4995C62.5145 27.8599 62.3439 27.3342 62.2199 26.8928C62.0487 26.283 61.9419 25.7533 61.9418 25.1924C61.9416 24.6314 62.0481 24.1014 62.2193 23.4909C62.344 23.0464 62.5159 22.5169 62.7253 21.8716C62.7967 21.6516 62.8725 21.4181 62.9523 21.1699C63.4526 19.6121 62.9438 17.9024 61.475 16.6781L61.4749 16.678C61.2538 16.4936 61.0459 16.3211 60.8506 16.1591C60.2859 15.6905 59.8265 15.3093 59.4569 14.9807C58.9513 14.5311 58.5567 14.1312 58.233 13.6638C57.6933 12.8845 57.4029 11.9692 56.9399 10.51C56.8673 10.2814 56.7906 10.0395 56.7079 9.78261L56.7078 9.7822C56.1979 8.19476 54.6624 6.84827 52.5537 6.377L52.5536 6.37698C52.2391 6.30667 51.9448 6.24173 51.6686 6.18076C49.9153 5.79383 48.8867 5.56681 47.9999 5.14036C47.1017 4.70841 46.3347 4.06508 45.048 2.98598C44.8498 2.81971 44.6392 2.64311 44.4139 2.45533L44.4139 2.45531C42.9259 1.21499 40.7031 0.699977 38.5952 1.17106L38.595 1.17109C38.2815 1.24113 37.9887 1.30735 37.7139 1.3695C35.9598 1.76619 34.939 1.99705 33.925 1.99723C32.9088 1.9974 31.8844 1.76592 30.1201 1.36725C29.848 1.30577 29.5583 1.24031 29.2483 1.17111L29.2481 1.17106C27.1398 0.699884 24.9173 1.21386 23.4297 2.45501L23.4295 2.45518C23.2033 2.64383 22.9919 2.82122 22.793 2.98818C21.5096 4.06515 20.7437 4.70793 19.8464 5.13973C18.9587 5.56687 17.9285 5.7942 16.1711 6.18199C15.8964 6.24261 15.6038 6.30716 15.2913 6.377C13.1826 6.84827 11.6471 8.19476 11.1372 9.7822L11.1372 9.78224C11.0552 10.0375 10.979 10.278 10.9069 10.5053C10.4436 11.9672 10.1532 12.8837 9.61255 13.664C9.28872 14.1314 8.89392 14.5313 8.38821 14.9808C8.01935 15.3086 7.561 15.689 6.99798 16.1561C6.80164 16.319 6.59258 16.4925 6.37014 16.678L6.36998 16.6781C4.90062 17.9029 4.39112 19.6126 4.89251 21.1694L4.89264 21.1698C4.97362 21.4216 5.0505 21.6582 5.12289 21.8811C5.33049 22.5201 5.50111 23.0454 5.62505 23.4865C5.7963 24.096 5.90307 24.6255 5.90321 25.1864C5.90335 25.7473 5.79686 26.2773 5.62569 26.8879C5.50105 27.3324 5.32919 27.8621 5.11977 28.5075C5.04833 28.7277 4.97251 28.9613 4.89271 29.2097C4.39244 30.7673 4.90106 32.4772 6.37014 33.7031L45.4714 47.0442ZM45.4714 47.0442C43.525 48.6673 40.4234 48.9816 38.0345 47.7432C36.7931 47.0978 35.3676 46.7615 33.9225 46.7615C32.4775 46.7615 31.052 47.0978 29.8107 47.7431C27.4198 48.9817 24.3182 48.6672 22.3719 47.0442M45.4714 47.0442H22.3719M11.1371 40.5985L11.1372 40.5988C11.6471 42.1862 13.1825 43.5327 15.2911 44.004L11.1371 40.5985ZM11.1371 40.5985C11.0546 40.342 10.978 40.1003 10.9055 39.872M11.1371 40.5985L10.9055 39.872M10.9055 39.872C10.4423 38.4117 10.1519 37.4961 9.61195 36.7166M10.9055 39.872L9.61195 36.7166M9.61195 36.7166C9.28822 36.2493 8.89357 35.8495 8.38798 35.4001M9.61195 36.7166L8.38798 35.4001M8.38798 35.4001C8.01921 35.0723 7.56094 34.692 6.99794 34.2249M8.38798 35.4001L6.99794 34.2249M6.99794 34.2249C6.80168 34.0621 6.5927 33.8887 6.37034 33.7032L6.99794 34.2249ZM22.3719 47.0442C21.0961 45.9801 20.2869 45.3946 19.2569 44.9946M22.3719 47.0442L19.2569 44.9946M19.2569 44.9946C18.5034 44.7019 17.6281 44.5125 16.3967 44.246M19.2569 44.9946L16.3967 44.246M16.3967 44.246C16.057 44.1725 15.6902 44.0931 15.2913 44.004L16.3967 44.246ZM16.9978 51.7681L16.9981 51.7684C19.5615 53.8664 22.9366 54.9997 26.4925 54.9997C27.8855 54.9997 29.247 54.8023 30.5454 54.4446L22.7232 70.1533L22.7231 70.1535C22.5263 70.549 22.0642 70.875 21.43 70.9724C20.801 71.069 20.1638 70.911 19.7343 70.5399L13.5127 65.1572L13.2174 64.9017L12.8271 64.9139L3.78089 65.1965C3.0614 65.2189 2.51084 64.9325 2.21641 64.5882C1.93618 64.2606 1.88207 63.8972 2.05782 63.5439C2.05786 63.5438 2.0579 63.5437 2.05793 63.5436L9.36734 48.865C10.4902 49.4863 11.7272 50.0024 13.104 50.3048L13.1044 50.3049C13.7074 50.4371 14.1982 50.5398 14.5885 50.6214C14.7799 50.6614 14.947 50.6964 15.0914 50.7273C15.5567 50.8269 15.7731 50.8826 15.9147 50.9355C16.0151 50.9731 16.0809 51.0093 16.216 51.1156C16.3128 51.1917 16.3977 51.2641 16.5097 51.3595C16.6274 51.4599 16.775 51.5857 16.9978 51.7681ZM58.4762 48.8655L65.7855 63.5439L65.7855 63.544C65.961 63.8963 65.9074 64.2597 65.6268 64.5878C65.3322 64.9323 64.7816 65.2189 64.0624 65.1965L55.0161 64.9139L54.626 64.9017L54.3307 65.1571L48.1069 70.5402L48.1068 70.5403C47.6785 70.9108 47.0417 71.0691 46.4121 70.9724C45.7775 70.8749 45.3152 70.5488 45.1185 70.1535L45.1184 70.1533L37.2958 54.4439C38.594 54.8017 39.9558 54.9997 41.3491 54.9997C44.9048 54.9997 48.2817 53.8665 50.8452 51.7684L50.8455 51.7681C51.0767 51.5788 51.2238 51.4529 51.3409 51.3527C51.4469 51.262 51.5283 51.1924 51.6253 51.1157C51.7591 51.0099 51.8228 50.9747 51.9212 50.9378C52.0615 50.8852 52.2772 50.8295 52.7438 50.7294C52.8903 50.698 53.0606 50.6623 53.2561 50.6213C53.6467 50.5396 54.1375 50.4368 54.7389 50.3049L54.7393 50.3048C56.1158 50.0025 57.3528 49.4873 58.4762 48.8655ZM33.9216 10.2412C24.6023 10.2412 16.7241 16.5717 16.7241 24.744C16.7241 32.9164 24.6023 39.2469 33.9216 39.2469C43.241 39.2469 51.1191 32.9164 51.1191 24.744C51.1191 16.5717 43.241 10.2412 33.9216 10.2412Z" fill="#FAFAFA" stroke="#A3977A" stroke-width="2"/>
</svg>
