<svg width="72" height="60" viewBox="0 0 72 60" fill="none" xmlns="http://www.w3.org/2000/svg">
<path d="M15.5566 25.6272L15.5566 25.6271C16.6139 21.5177 19.6987 18.2886 23.5716 17.0765L24.5767 15.6766L24.5768 15.6765L28.1937 10.6409L28.194 10.6404C28.4442 10.2926 28.7122 9.97058 28.964 9.67428L30.1885 3.35165C30.1929 3.3294 30.1921 3.31595 30.1914 3.30959C30.1906 3.30294 30.1891 3.29849 30.1875 3.29506C30.1847 3.28891 30.1796 3.28201 30.1727 3.27623L23.3815 9.09837L23.3807 9.09905C22.443 9.90119 21.0468 9.66851 20.3929 8.64576L20.3925 8.64508L15.5216 1.01206C15.5216 1.01195 15.5215 1.01185 15.5214 1.01174C15.5189 1.00784 15.5166 1.00461 15.5147 1.00199C15.5121 1.00336 15.5106 1.00477 15.51 1.00542C15.5098 1.00567 15.5085 1.00713 15.5066 1.01158C15.5047 1.01582 15.5002 1.02787 15.4981 1.05113L15.4981 1.05139L14.6487 10.1756L14.6486 10.176C14.5387 11.3523 13.4513 12.2549 12.2325 11.9991L3.61261 10.1911C3.60992 10.1944 3.60678 10.1988 3.60349 10.2045C3.59147 10.2254 3.58763 10.2464 3.58824 10.2602C3.5885 10.2662 3.58955 10.2713 3.59137 10.2762C3.59306 10.2808 3.59717 10.2902 3.60822 10.3042L3.60842 10.3044L9.2008 17.3837L9.2014 17.3845C9.93307 18.3125 9.7487 19.6992 8.76332 20.3827L8.76257 20.3832L1.43319 25.4575L1.43301 25.4576C1.42173 25.4654 1.41782 25.4705 1.41692 25.4717C1.41575 25.4733 1.41432 25.4756 1.41282 25.48C1.40918 25.4907 1.40589 25.5132 1.41271 25.5416C1.41585 25.5546 1.42032 25.5652 1.42456 25.5727C1.42586 25.575 1.42705 25.5769 1.42806 25.5784C1.42867 25.5784 1.42934 25.5785 1.43007 25.5786L1.43023 25.5786L10.188 26.4632C10.1882 26.4632 10.1885 26.4633 10.1888 26.4633L10.1895 26.4634L10.089 27.4583C10.6897 27.5181 11.1082 28.1064 10.989 28.7228L15.5566 25.6272ZM15.5566 25.6272L14.1594 31.0612L14.1593 31.0615C13.8325 32.3337 13.7365 33.6341 13.8181 34.9137L10.2494 37.9742C10.2424 37.9683 10.2372 37.9614 10.2345 37.9554C10.2339 37.9542 10.2334 37.9529 10.2329 37.9514C10.232 37.9487 10.2312 37.9455 10.2307 37.9413C10.23 37.9351 10.2293 37.9218 10.2336 37.8997L10.2338 37.8985L11.9708 28.9127M15.5566 25.6272L11.9708 28.9127M11.9708 28.9127C11.9708 28.9127 11.9708 28.9126 11.9708 28.9126L11.9708 28.9127ZM66.9309 50.4906L67.2349 50.2785C67.538 50.067 67.824 49.829 68.0898 49.5669C68.8853 48.7809 69.4933 47.7751 69.7985 46.5885L71.1958 41.1557L72.1643 41.4048L71.1958 41.1555C71.5428 39.8077 71.4545 38.4511 71.0249 37.2403C70.5896 36.0133 69.8157 34.9555 68.8081 34.1977L68.4646 33.9394L68.4156 33.5125L68.0118 29.991L68.0117 29.9909L67.2962 23.746L67.2962 23.7456C67.0832 21.8799 66.476 20.1487 65.5596 18.6463C64.6392 17.1379 63.4098 15.8655 61.9633 14.9194L61.9628 14.9191C60.9937 14.2846 59.9222 13.7932 58.7712 13.4719C58.7712 13.4719 58.7711 13.4719 58.7711 13.4719L44.9697 9.61994L44.9696 9.61992C43.8187 9.29865 42.6557 9.16665 41.5162 9.21069C40.3766 9.25474 39.2563 9.47496 38.1902 9.85983L38.1888 9.86034C37.6571 10.0514 37.138 10.2846 36.6356 10.5581L36.6353 10.5583C35.6319 11.104 34.6964 11.8104 33.8658 12.6636L33.8645 12.665C33.4498 13.0895 33.0612 13.5534 32.7014 14.0543L29.0846 19.0897L29.0845 19.0898L27.0449 21.9292L26.7835 22.2932L26.3378 22.3403C25.7249 22.405 25.1239 22.5647 24.5545 22.8146L24.5542 22.8147C22.8603 23.5576 21.4909 25.0751 20.9709 27.0947L19.5737 32.5284L19.5737 32.5286C19.2683 33.7156 19.3112 34.9095 19.6255 36.0134C19.7306 36.382 19.8653 36.7403 20.028 37.0846L20.1823 37.4111L20.0924 37.7609L18.5185 43.8813C18.5185 43.8814 18.5185 43.8815 18.5185 43.8816C18.4232 44.2527 18.4047 44.627 18.4523 44.9859C18.5973 46.0707 19.3419 46.9764 20.3647 47.2619L23.8419 48.2322C23.8419 48.2322 23.842 48.2322 23.842 48.2322C25.1902 48.6081 26.6304 47.7854 27.0136 46.2945L27.0136 46.2944L27.9451 42.6721L28.1993 41.6836L29.1825 41.958L57.0015 49.7229L57.9451 49.9863L57.7011 50.9351L56.7696 54.5572C56.7696 54.5573 56.7696 54.5573 56.7696 54.5574C56.3829 56.0624 57.2508 57.557 58.6156 57.9376L58.6158 57.9377L62.0931 58.908L62.0932 58.908C63.1091 59.1916 64.1637 58.7991 64.7962 57.9547L66.9309 50.4906ZM66.9309 50.4906L66.8386 50.8495M66.9309 50.4906L66.8386 50.8495M66.8386 50.8495L65.2648 56.9702L65.2646 56.971M66.8386 50.8495L65.2646 56.971M65.2646 56.971C65.1694 57.3422 65.0069 57.6722 64.797 57.9537L65.2646 56.971ZM27.0348 35.6461L27.0349 35.6461C27.2461 35.705 27.4835 35.7765 27.7383 35.8533C28.6098 36.1156 29.6855 36.4395 30.6164 36.5341C31.2338 36.5969 31.9382 36.5812 32.5687 36.2947C33.259 35.9809 33.7433 35.3962 33.9524 34.5826C34.1478 33.8234 34.0777 32.9802 33.8875 32.1929C33.694 31.3921 33.3577 30.5713 32.9384 29.8175C32.5192 29.064 32.0015 28.3491 31.4267 27.7713C30.863 27.2046 30.1834 26.7087 29.4312 26.4987L29.164 27.4555L29.4311 26.4986C28.1596 26.1438 26.9086 26.2718 25.8716 26.8932C24.8384 27.5123 24.1203 28.5591 23.7872 29.8527C23.4538 31.1475 23.5764 32.4161 24.1645 33.4729C24.7543 34.5328 25.7636 35.2911 27.0348 35.6461ZM61.8559 30.763L62.8494 30.6492L62.1339 24.4045C62.1339 24.4044 62.1339 24.4043 62.1339 24.4042C62.0575 23.7362 61.8848 23.096 61.63 22.5005L61.6297 22.4999C60.8648 20.7153 59.3527 19.3202 57.4447 18.7877L43.6432 14.9357L43.6431 14.9357C42.4002 14.5889 41.0854 14.6381 39.8705 15.0763C38.6561 15.5143 37.6022 16.3188 36.8405 17.3792L36.8404 17.3792L33.2235 22.4148L32.3889 23.5768L33.7669 23.9613L53.1168 29.3613L53.1169 29.3614L61.587 31.7262L61.8559 30.763ZM56.3581 40.878L56.3581 40.8781C56.1492 41.691 56.2905 42.4341 56.7248 43.047C57.1248 43.6115 57.7183 43.9883 58.2835 44.2558C59.1341 44.6583 60.2205 44.9379 61.1012 45.1646C61.3586 45.2309 61.5985 45.2926 61.8098 45.3516C63.0812 45.7064 64.3323 45.5784 65.3693 44.957C66.4025 44.3379 67.1205 43.2911 67.4537 41.9975L67.4537 41.9972C67.7865 40.7031 67.6639 39.4346 67.0759 38.3778C66.4861 37.3178 65.4767 36.5591 64.2048 36.2041C63.45 35.9934 62.6174 36.0689 61.8502 36.2678C61.0692 36.4703 60.2725 36.8221 59.5436 37.2589C58.8144 37.6958 58.1247 38.2346 57.569 38.8313C57.0219 39.4187 56.5538 40.1169 56.3581 40.878Z" fill="white" stroke="#FFBF00" stroke-width="2"/>
</svg>
