<svg width="84" height="72" viewBox="0 0 84 72" fill="none" xmlns="http://www.w3.org/2000/svg">
<g clip-path="url(#clip0)">
<rect width="83.28" height="72" transform="translate(0.0499878)" fill="#FAFAFA"/>
<path d="M73.6397 25.6092L73.6398 25.6092C74.7886 24.6158 76.7034 24.6158 77.8524 25.6092L81.5328 28.7911C82.596 29.7104 82.5959 31.132 81.5328 32.0511L61.2901 49.552L61.2901 49.5521C60.1413 50.5454 58.2265 50.5454 57.0774 49.552L53.397 46.3701L53.397 46.3701C52.3338 45.451 52.3337 44.0294 53.397 43.1101L54.3172 42.3146L55.1922 41.5581L54.3172 40.8016L47.8763 35.2332L47.2223 34.6677L46.5683 35.2332L33.3866 46.6294L32.5116 47.3859L33.3866 48.1424L34.3068 48.9379C35.8782 50.2964 35.8782 52.4303 34.3068 53.7889L15.6428 69.9249C13.9856 71.3576 11.2469 71.3576 9.58979 69.9249L2.22878 63.5609C0.657381 62.2024 0.657381 60.0685 2.22878 58.7099L1.5807 57.9603L2.22879 58.7099L20.8926 42.5738C22.5498 41.1411 25.2884 41.1411 26.9456 42.5738L27.8657 43.3693L28.5197 43.9347L29.1738 43.3693L42.3554 31.973L43.2304 31.2166L42.3554 30.4601L35.9146 24.8916L35.2605 24.3262L34.6065 24.8916L33.6864 25.6871L33.6863 25.6872C32.5375 26.6805 30.6227 26.6805 29.4737 25.6871L25.7933 22.5052L25.7932 22.5052C24.7301 21.5861 24.73 20.1645 25.7933 19.2452L46.036 1.74431L46.036 1.74427C47.1849 0.750951 49.0997 0.750904 50.2487 1.74429L53.9291 4.92635L53.9292 4.9264C54.9923 5.84548 54.9924 7.26709 53.9291 8.18635L53.009 8.98187L52.134 9.73835L53.009 10.4948L71.4116 26.4047L72.0656 26.9701L72.7196 26.4047L73.6397 25.6092Z" fill="#FAFAFA" stroke="#A3977A" stroke-width="2"/>
</g>
<defs>
<clipPath id="clip0">
<rect width="83.28" height="72" fill="white" transform="translate(0.0499878)"/>
</clipPath>
</defs>
</svg>
