<svg width="85" height="72" viewBox="0 0 85 72" fill="none" xmlns="http://www.w3.org/2000/svg">
<path d="M33.1694 47.25V47.4364C33.0966 50.0419 31.5015 52.5066 28.7337 54.3761C25.9058 56.2862 21.9427 57.5 17.516 57.5C13.0893 57.5 9.12614 56.2862 6.29826 54.3761C3.53046 52.5066 1.93534 50.0419 1.86259 47.4365V47.25C1.86259 47.1988 1.86249 47.1505 1.8624 47.1047C1.86149 46.64 1.86108 46.4291 1.96505 46.0306C2.09359 45.5378 2.38146 44.7826 3.05845 43.2561C3.8248 41.5282 5.0491 38.8996 7.01005 34.6893C8.49152 31.5085 10.3934 27.4249 12.836 22.145C14.778 17.9478 20.255 17.9541 22.1947 22.1451C24.7708 27.713 26.7453 31.9455 28.2594 35.1911C30.0535 39.0371 31.2013 41.4974 31.9378 43.1524C32.6206 44.6867 32.9181 45.4606 33.0543 45.9747C33.1699 46.411 33.1697 46.649 33.1694 47.1635C33.1694 47.1915 33.1694 47.2203 33.1694 47.25ZM18.4236 24.3301L17.516 22.3685L16.6084 24.3301L7.23942 44.5801L6.58247 46H8.14699H26.885H28.4495L27.7926 44.5801L18.4236 24.3301ZM83.1374 47.25V47.4364C83.0646 50.0419 81.4695 52.5066 78.7017 54.3761C75.8738 56.2862 71.9107 57.5 67.484 57.5C63.0573 57.5 59.0941 56.2862 56.2663 54.3761C53.4984 52.5066 51.9033 50.0418 51.8306 47.4363V47.25C51.8306 47.1988 51.8305 47.1506 51.8304 47.1047C51.8295 46.64 51.8291 46.4292 51.933 46.0306C52.0616 45.5378 52.3495 44.7826 53.0265 43.2561C53.7928 41.5282 55.0171 38.8996 56.978 34.6894C58.4595 31.5086 60.3614 27.425 62.804 22.145C64.746 17.9478 70.2231 17.9541 72.1627 22.1451C74.7388 27.7131 76.7133 31.9456 78.2274 35.1912C80.0215 39.0371 81.1693 41.4974 81.9058 43.1524C82.5886 44.6867 82.8861 45.4606 83.0223 45.9747C83.1379 46.411 83.1377 46.649 83.1374 47.1635C83.1374 47.1915 83.1374 47.2203 83.1374 47.25ZM57.2074 44.5801L56.5505 46H58.115H76.853H78.4175L77.7606 44.5801L68.3916 24.3301L67.484 22.3685L66.5764 24.3301L57.2074 44.5801ZM45.664 63V64H46.664H69.566C70.0924 64 70.648 64.4847 70.648 65.25V69.75C70.648 70.5153 70.0924 71 69.566 71H15.434C14.9076 71 14.352 70.5153 14.352 69.75V65.25C14.352 64.4847 14.9076 64 15.434 64H38.336H39.336V63V21.5508V20.9174L38.7634 20.6467C36.0067 19.3434 33.9066 16.6386 33.2823 13.3154L33.1291 12.5H32.2995H15.434C14.9076 12.5 14.352 12.0153 14.352 11.25V6.75C14.352 5.98467 14.9076 5.5 15.434 5.5H34.2188H34.7398L35.0383 5.07306C36.7762 2.5878 39.473 1 42.5 1C45.5269 1 48.2238 2.5878 49.9616 5.07306L50.2602 5.5H50.7811H69.566C70.0924 5.5 70.648 5.98467 70.648 6.75V11.25C70.648 12.0153 70.0924 12.5 69.566 12.5H52.7005H51.8708L51.7177 13.3154C51.0934 16.6398 48.9922 19.3433 46.2364 20.6468L45.664 20.9176V21.5508V63Z" fill="#FAFAFA" stroke="#A3977A" stroke-width="2"/>
</svg>
